<?xml version="1.0" encoding="UTF-8" standalone="no"?>
<svg
   t="1627636909410"
   class="icon"
   viewBox="0 0 1024 1024"
   version="1.1"
   p-id="9020"
   width="200"
   height="200"
   id="svg19"
   sodipodi:docname="star_fill.svg"
   inkscape:version="1.1 (c68e22c387, 2021-05-23)"
   xmlns:inkscape="http://www.inkscape.org/namespaces/inkscape"
   xmlns:sodipodi="http://sodipodi.sourceforge.net/DTD/sodipodi-0.dtd"
   xmlns="http://www.w3.org/2000/svg"
   xmlns:svg="http://www.w3.org/2000/svg">
  <defs
     id="defs23" />
  <sodipodi:namedview
     id="namedview21"
     pagecolor="#ffffff"
     bordercolor="#666666"
     borderopacity="1.0"
     inkscape:pageshadow="2"
     inkscape:pageopacity="0.0"
     inkscape:pagecheckerboard="0"
     showgrid="false"
     inkscape:zoom="5.36"
     inkscape:cx="112.40672"
     inkscape:cy="35.261194"
     inkscape:window-width="1304"
     inkscape:window-height="745"
     inkscape:window-x="-8"
     inkscape:window-y="-8"
     inkscape:window-maximized="1"
     inkscape:current-layer="svg19" />
  <path
     d="M 908.1,353.1 654.2,316.2 540.7,86.1 c -3.1,-6.3 -8.2,-11.4 -14.5,-14.5 -15.8,-7.8 -35,-1.3 -42.9,14.5 L 369.8,316.2 115.9,353.1 c -7,1 -13.4,4.3 -18.3,9.3 -12.3,12.7 -12.1,32.9 0.6,45.3 l 183.7,179.1 -43.4,252.9 c -1.2,6.9 -0.1,14.1 3.2,20.3 8.2,15.6 27.6,21.7 43.2,13.4 L 512,754 739.1,873.4 c 6.2,3.3 13.4,4.4 20.3,3.2 17.4,-3 29.1,-19.5 26.1,-36.9 L 742.1,586.8 925.8,407.7 c 5,-4.9 8.3,-11.3 9.3,-18.3 2.7,-17.5 -9.5,-33.7 -27,-36.3 z"
     p-id="9021"
     id="path17"
     sodipodi:nodetypes="ccccccccccccccccccccc" />
</svg>
