<?xml version="1.0" standalone="no"?><!DOCTYPE svg PUBLIC "-//W3C//DTD SVG 1.1//EN" "http://www.w3.org/Graphics/SVG/1.1/DTD/svg11.dtd"><svg t="1627637069687" class="icon" viewBox="0 0 1024 1024" version="1.1" xmlns="http://www.w3.org/2000/svg" p-id="9813" xmlns:xlink="http://www.w3.org/1999/xlink" width="200" height="200"><defs><style type="text/css">@font-face { font-family: feedback-iconfont; src: url("//at.alicdn.com/t/font_1031158_1uhr8ri0pk5.eot?#iefix") format("embedded-opentype"), url("//at.alicdn.com/t/font_1031158_1uhr8ri0pk5.woff2") format("woff2"), url("//at.alicdn.com/t/font_1031158_1uhr8ri0pk5.woff") format("woff"), url("//at.alicdn.com/t/font_1031158_1uhr8ri0pk5.ttf") format("truetype"), url("//at.alicdn.com/t/font_1031158_1uhr8ri0pk5.svg#iconfont") format("svg"); }
</style></defs><path d="M870 126H663.8c-17.4 0-32.9 11.9-37 29.3C614.3 208.1 567 246 512 246s-102.3-37.9-114.8-90.7c-4.1-17.4-19.5-29.3-37-29.3H154c-24.3 0-44 19.7-44 44v252c0 24.3 19.7 44 44 44h75v388c0 24.3 19.7 44 44 44h478c24.3 0 44-19.7 44-44V466h75c24.3 0 44-19.7 44-44V170c0-24.3-19.7-44-44-44z m-28 268H723v432H301V394H182V198h153.3c28.2 71.2 97.5 120 176.7 120s148.5-48.8 176.7-120H842v196z" p-id="9814"></path></svg>