<?xml version="1.0" encoding="utf-8"?>
<!-- Generator: Adobe Illustrator 25.3.1, SVG Export Plug-In . SVG Version: 6.00 Build 0)  -->
<svg version="1.1" id="图层_1" xmlns="http://www.w3.org/2000/svg" xmlns:xlink="http://www.w3.org/1999/xlink" x="0px" y="0px"
	 viewBox="0 0 200 200" style="enable-background:new 0 0 200 200;" xml:space="preserve">
<style type="text/css">
	.st0{fill:#FFA500;}
</style>
<path class="st0" d="M100,12.5c-48.3,0-87.5,39.2-87.5,87.5s39.2,87.5,87.5,87.5s87.5-39.2,87.5-87.5S148.3,12.5,100,12.5z
	 M100,172.7c-40.1,0-72.7-32.5-72.7-72.7S59.9,27.3,100,27.3s72.7,32.5,72.7,72.7S140.1,172.7,100,172.7z"/>
<path class="st0" d="M90.6,134.4c0,5.2,4.2,9.4,9.4,9.4c5.2,0,9.4-4.2,9.4-9.4s-4.2-9.4-9.4-9.4C94.8,125,90.6,129.2,90.6,134.4z"/>
<path class="st0" d="M95.3,112.5h9.4c0.9,0,1.6-0.7,1.6-1.6V57.8c0-0.9-0.7-1.6-1.6-1.6h-9.4c-0.9,0-1.6,0.7-1.6,1.6v53.1
	C93.8,111.8,94.5,112.5,95.3,112.5z"/>
</svg>
